<svg width="1200" height="630" viewBox="0 0 1200 630" fill="none" xmlns="http://www.w3.org/2000/svg">
  <rect width="1200" height="630" rx="32" fill="#0F172A"/>
  <rect width="1200" height="630" rx="32" fill="url(#bgGlow)"/>
  <circle cx="202" cy="102" r="220" fill="#F7911D" fill-opacity="0.12"/>
  <circle cx="1022" cy="522" r="260" fill="#F7911D" fill-opacity="0.12"/>
  <rect x="78" y="72" width="1044" height="486" rx="28" fill="white" fill-opacity="0.06" stroke="white" stroke-opacity="0.08"/>
  <rect x="118" y="112" width="132" height="132" rx="28" fill="#F7911D"/>
  <path d="M158 197C171.255 184.922 190.248 176.333 209.25 178.391C208.671 192.152 197.289 201.821 184.903 208.212L186.923 215.289H205.885L202.249 228H150.711L154.347 215.289H173.06L171.123 208.546C156.343 205.164 146 194.196 146 178.806C146 158.547 163.328 143 187.716 143C205.969 143 220.42 151.588 226 165.929L212.245 172.57C208.173 162.484 198.782 157.12 187.882 157.12C171.62 157.12 160.281 166.847 160.281 178.806C160.281 188.844 168.263 196.204 179.908 198.013L177.972 191.047L186.176 183.567L194.047 191.297L193.965 191.547C199.944 188.602 205.223 184.088 207.657 178.057" fill="white"/>
  <text x="292" y="178" fill="white" font-family="Segoe UI, Arial, sans-serif" font-size="58" font-weight="700">LizSpeedTest</text>
  <text x="292" y="246" fill="#CBD5E1" font-family="Segoe UI, Arial, sans-serif" font-size="28" font-weight="500">Android internet speed test with download, upload, ping, jitter, and packet loss metrics.</text>
  <text x="120" y="354" fill="white" font-family="Segoe UI, Arial, sans-serif" font-size="76" font-weight="700">Measure your network</text>
  <text x="120" y="430" fill="#F7911D" font-family="Segoe UI, Arial, sans-serif" font-size="76" font-weight="700">with confidence.</text>
  <g opacity="0.9">
    <rect x="120" y="482" width="190" height="52" rx="26" fill="#F7911D"/>
    <text x="156" y="516" fill="white" font-family="Segoe UI, Arial, sans-serif" font-size="24" font-weight="700">Google Play</text>
  </g>
  <g opacity="0.92">
    <rect x="812" y="150" width="220" height="270" rx="24" fill="white" fill-opacity="0.06" stroke="white" stroke-opacity="0.08"/>
    <text x="850" y="205" fill="#94A3B8" font-family="Segoe UI, Arial, sans-serif" font-size="20" font-weight="700">DOWNLOAD</text>
    <text x="848" y="262" fill="white" font-family="Segoe UI, Arial, sans-serif" font-size="56" font-weight="700">327.4</text>
    <text x="988" y="262" fill="#94A3B8" font-family="Segoe UI, Arial, sans-serif" font-size="24" font-weight="500">Mbps</text>
    <text x="850" y="324" fill="#94A3B8" font-family="Segoe UI, Arial, sans-serif" font-size="20" font-weight="700">PING</text>
    <text x="848" y="380" fill="white" font-family="Segoe UI, Arial, sans-serif" font-size="56" font-weight="700">18</text>
    <text x="924" y="380" fill="#94A3B8" font-family="Segoe UI, Arial, sans-serif" font-size="24" font-weight="500">ms</text>
  </g>
  <path d="M760 476C806 430 848 428 892 452C938 477 966 474 1036 406" stroke="#F7911D" stroke-width="10" stroke-linecap="round"/>
  <defs>
    <radialGradient id="bgGlow" cx="0" cy="0" r="1" gradientUnits="userSpaceOnUse" gradientTransform="translate(600 315) rotate(90) scale(360 720)">
      <stop stop-color="#1E293B"/>
      <stop offset="1" stop-color="#0F172A"/>
    </radialGradient>
  </defs>
</svg>
